<?xml version="1.0" encoding="UTF-8"?><svg xmlns="http://www.w3.org/2000/svg" viewBox="0 0 1920 472.78"><defs><style>.d,.e{fill:#fff;}.e{font-family:Lato-Black, Lato;font-size:406.26px;}</style></defs><g id="a"/><g id="b"><g id="c"><rect width="1920" height="408.97"/><text class="e" transform="translate(49.39 351.11) scale(.99 1)"><tspan x="0" y="0" xml:space="preserve">REI     MEI</tspan></text><path class="d" d="M750.08,253.23c0-83.02,75.13-150.32,167.8-150.32s167.8,67.3,167.8,150.32"/><path class="d" d="M1147.19,298.25c-66.89,23-139.87,31.77-210.25,21.71-34.79-4.89-68.87-14.3-103.92-16.96-34.71-2.8-69.9-1.25-104.29,4.21-19.79,3.05-39.39,7.56-58.86,12.89,56.24-23.4,118.48-32.93,179.22-26.87,20.39,1.97,40.38,6.11,60.06,9.86,78.77,16.8,159.53,12.25,238.05-4.84h0Z"/></g></g></svg>